/* XPM */
static char *fe368c991eae4fc4f282fddaee8be0a4roNyyVuRwHmRHZPH[] = {
/* columns rows colors chars-per-pixel */
"32 32 4 1 ",
"  c None",
". c black",
"X c blue",
"o c white",
/* pixels */
"oooooooo................oooooooo",
"ooooooo.oooooooooooooooo.ooooooo",
"oooooo.oooooooooooooooooo.oooooo",
"ooooo.oooooooooooooooooooo.ooooo",
"oooo.oooooooooooooooooooooo.oooo",
"ooo.oooooooooooooooooooooooo.ooo",
"oo.oooooooooooooooooooooooooo.oo",
"o.oooooooooooooooooooooooooooo.o",
".ooooooooooXXXXXXXXXXoooooooooo.",
".ooooooooooXXXXXXXXXXoooooooooo.",
".ooooooooooXXoooooooooooooooooo.",
".ooooooooooXXoooooooooooooooooo.",
".ooooooooooXXoooooooooooooooooo.",
".ooooooooooXXoooooooooooooooooo.",
".ooooooooooXXXXXXXXoooooooooooo.",
".ooooooooooXXXXXXXXoooooooooooo.",
".ooooooooooXXoooooooooooooooooo.",
".ooooooooooXXoooooooooooooooooo.",
".ooooooooooXXoooooooooooooooooo.",
".ooooooooooXXoooooooooooooooooo.",
".ooooooooooXXoooooooooooooooooo.",
".ooooooooooXXoooooooooooooooooo.",
".ooooooooooXXoooooooooooooooooo.",
".ooooooooooXXoooooooooooooooooo.",
"o.oooooooooooooooooooooooooooo.o",
"oo.oooooooooooooooooooooooooo.oo",
"ooo.oooooooooooooooooooooooo.ooo",
"oooo.oooooooooooooooooooooo.oooo",
" oooo.oooooooooooooooooooo.ooooo",
"oooooo.oooooooooooooooooo.oooooo",
"ooooooo.oooooooooooooooo.ooooooo",
"oooooooo................oooooooo"
};
