/* XPM */
static char *_c8a60e6b36a43d5c73b6c23c4077dccaaBepJJaLFz14oxt[] = {
/* columns rows colors chars-per-pixel */
"64 64 4 1 ",
"  c None",
". c black",
"X c blue",
"o c white",
/* pixels */
"oooooooooooooooo................................oooooooooooooooo",
"ooooooooooooooo..................................ooooooooooooooo",
"oooooooooooooo..oooooooooooooooooooooooooooooooo..oooooooooooooo",
"ooooooooooooo..oooooooooooooooooooooooooooooooooo.. oooooooooooo",
"oooooooooooo..oooooooooooooooooooooooooooooooooooo..oooooooooooo",
"ooooooooooo..oooooooooooooooooooooooooooooooooooooo..ooooooooooo",
"oooooooooo..oooooooooooooooooooooooooooooooooooooooo..oooooooooo",
"ooooooooo..oooooooooooooooooooooooooooooooooooooooooo..ooooooooo",
"oooooooo..oooooooooooooooooooooooooooooooooooooooooooo..oooooooo",
"ooooooo..oooooooooooooooooooooooooooooooooooooooooooooo..ooooooo",
"oooooo..oooooooooooooooooooooooooooooooooooooooooooooooo..oooooo",
"ooooo..oooooooooooooooooooooooooooooooooooooooooooooooooo..ooooo",
"oooo..oooooooooooooooooooooooooooooooooooooooooooooooooooo..oooo",
"ooo..oooooooooooooooooooooooooooooooooooooooooooooooooooooo..ooo",
"oo..oooooooooooooooooooooooooooooooooooooooooooooooooooooooo..oo",
"o..oooooooooooooooooooooooooooooooooooooooooooooooooooooooooo..o",
"..oooooooooooooooooooXXXXXXXXXXXXXXXXXXXXXoooooooooooooooooooo..",
"..oooooooooooooooooooXXXXXXXXXXXXXXXXXXXXXoooooooooooooooooooo..",
"..oooooooooooooooooooXXXXXXXXXXXXXXXXXXXXXoooooooooooooooooooo..",
"..oooooooooooooooooooXXXXXXXXXXXXXXXXXXXXXoooooooooooooooooooo..",
"..oooooooooooooooooooXXXXXXXXXXXXXXXXXXXXXoooooooooooooooooooo..",
"..oooooooooooooooooooXXXXX ooooooooooooooooooooooooooooooooooo..",
"..oooooooooooooooooooXXXXX  oooooooooooooooooooooooooooooooooo..",
"..oooooooooooooooooooXXXXX  oooooooooooooooooooooooooooooooooo..",
"..oooooooooooooooooooXXXXX  oooooooooooooooooooooooooooooooooo..",
"..oooooooooooooooooooXXXXX  oooooooooooooooooooooooooooooooooo..",
"..oooooooooooooooooooXXXXX ooooooooooooooooooooooooooooooooooo..",
"..oooooooooooooooooooXXXXX oooooooo  ooooooooooooooooooooooooo..",
"..oooooooooooooooooooXXXXXXXXXXXXXXXX oooooooooooooooooooooooo..",
"..oooooooooooooooooooXXXXXXXXXXXXXXXXooooooooooooooooooooooooo..",
"..oooooooooooooooooooXXXXXXXXXXXXXXXXooooooooooooooooooooooooo..",
"..oooooooooooooooooooXXXXXXXXXXXXXXXXooooooooooooooooooooooooo..",
"..oooooooooooooooooooXXXXXXXXXXXXXXXXooooooooooooooooooooooooo..",
"..oooooooooooooooooooXXXXX ooooooooooooooooooooooooooooooooooo..",
"..oooooooooooooooooooXXXXX ooooooooooooooooooooooooooooooooooo..",
"..oooooooooooooooooooXXXXX ooooooooooooooooooooooooooooooooooo..",
"..oooooooooooooooooooXXXXX ooooooooooooooooooooooooooooooooooo..",
"..oooooooooooooooooooXXXXX ooooooooooooooooooooooooooooooooooo..",
"..oooooooooooooooooooXXXXX ooooooooooooooooooooooooooooooooooo..",
"..oooooooooooooooooooXXXXX  oooooooooooooooooooooooooooooooooo..",
"..oooooooooooooooooooXXXXX  oooooooooooooooooooooooooooooooooo..",
"..oooooooooooooooooo XXXXX  oooooooooooooooooooooooooooooooooo..",
"..oooooooooooooooooo XXXXX  oooooooooooooooooooooooooooooooooo..",
"..oooooooooooooooooo XXXXX  oooooooooooooooooooooooooooooooooo..",
"..oooooooooooooooooo XXXXX  oooooooooooooooooooooooooooooooooo..",
"..oooooooooooooooooooXXXXX  oooooooooooooooooooooooooooooooooo..",
"..oooooooooooooooooooXXXXX  oooooooooooooooooooooooooooooooooo..",
".. ooooooooooooooooooXXXXX  oooooooooooooooooooooooooooooooooo..",
"o..ooooooooooooooooooooooo  ooooooooooooooooooooooooooooooooo..o",
"oo..oooooooooooooooooooooooooooooooooooooooooooooooooooooooo..oo",
"ooo..oooooooooooooooooooooooooooooooooooooooooooooooooooooo..ooo",
"oooo..oooooooooooooooooooooooooooooooooooooooooooooooooooo..oooo",
"ooooo..oooooooooooooooooooooooooooooooooooooooooooooooooo..ooooo",
"oooooo..oooooooooooooooooooooooooooooooooooooooooooooooo..oooooo",
"ooooooo..oooooooooooooooooooooooooooooooooooooooooooooo..ooooooo",
"oooooooo..oooooooooooooooooooooooooooooooooooooooooooo..oooooooo",
"ooooooooo..oooooooooooooooooooooooooooooooooooooooooo..ooooooooo",
"oooooooooo..oooooooooooooooooooooooooooooooooooooooo..oooooooooo",
"ooooooooooo..oooooooooooooooooooooooooooooooooooooo..ooooooooooo",
"oooooooooooo..oooooooooooooooooooooooooooooooooooo..oooooooooooo",
"ooooooooooooo..oooooooooooooooooooooooooooooooooo..ooooooooooooo",
"oooooooooooooo..oooooooooooooooooooooooooooooooo..oooooooooooooo",
"ooooooooooooooo..................................ooooooooooooooo",
"oooooooooooooooo................................oooooooooooooooo"
};
