/* XPM */
static char *_8a7ad63fc4243adcb2b0e5f6f9e330bIF5qj57m1bfibxsS[] = {
/* columns rows colors chars-per-pixel */
"128 128 4 1 ",
"  c None",
". c black",
"X c blue",
"o c white",
/* pixels */
"ooooooooooooooooooooooooooooooo     ............................................................   ooooooooooooooooooooooooooooo",
"ooooooooooooooooooooooooooooooo    ..............................................................  ooooooooooooooooooooooooooooo",
"ooooooooooooooooooooooooooooooo   ................................................................ ooooooooooooooooooooooooooooo",
"oooooooooooooooooooooooooooooooo  .....ooooooooooooooooooooooooooooooooooooooooooooooooooooooo.....ooooooooooooooooooooooooooooo",
"ooooooooooooooooooooooooooooooo  .....ooooooooooooooooooooooooooooooooooooooooooooooooooooooooo.....oooooooooooooooooooooooooooo",
"oooooooooooooooooooooooooooooo  .....ooooooooooooooooooooooooooooooooooooooooooooooooooooooooooo.....ooooooooooooooooooooooooooo",
"oooooooooooooooooooooooooooo  ......ooooooooooooooooooooooooooooooooooooooooooooooooooooooooooooo.....oooooooooooooooooooooooooo",
"ooooooooooooooooooooooooooo  ......ooooooooooooooooooooooooooooooooooooooooooooooooooooooooooooooo.....ooooooooooooooooooooooooo",
"oooooooooooooooooooooooooo  ......ooooooooooooooooooooooooooooooooooooooooooooooooooooooooooooooooo.....oooooooooooooooooooooooo",
"ooooooooooooooooooooooooo  ......ooooooooooooooooooooooooooooooooooooooooooooooooooooooooooooooooooo.....ooooooooooooooooooooooo",
"oooooooooooooooooooooooo  .....oooooooooooooooooooooooooooooooooooooooooooooooooooooooooooooooooooooo.....oooooooooooooooooooooo",
"ooooooooooooooooooooooo  .....oooooooooooooooooooooooooooooooooooooooooooooooooooooooooooooooooooooooo.....ooooooooooooooooooooo",
"oooooooooooooooooooooo  .....oooooooooooooooooooooooooooooooooooooooooooooooooooooooooooooooooooooooooo.....oooooooooooooooooooo",
"ooooooooooooooooooooo  .....oooooooooooooooooooooooooooooooooooooooooooooooooooooooooooooooooooooooooooo.....ooooooooooooooooooo",
"ooooooooooooooooooo   .....oooooooooooooooooooooooooooooooooooooooooooooooooooooooooooooooooooooooooooooo.....oooooooooooooooooo",
"oooooooooooooooooo  ......oooooooooooooooooooooooooooooooooooooooooooooooooooooooooooooooooooooooooooooooo.....ooooooooooooooooo",
"ooooooooooooooooooo......oooooooooooooooooooooooooooooooooooooooooooooooooooooooooooooooooooooooooooooooooo.....oooooooooooooooo",
"oooooooooooooooooo......oooooooooooooooooooooooooooooooooooooooooooooooooooooooooooooooooooooooooooooooooooo.....ooooooooooooooo",
"ooooooooooooooooo......oooooooooooooooooooooooooooooooooooooooooooooooooooooooooooooooooooooooooooooooooooooo.....oooooooooooooo",
"oooooooooooooooo......oooooooooooooooooooooooooooooooooooooooooooooooooooooooooooooooooooooooooooooooooooooooo.....ooooooooooooo",
"ooooooooooooooo......oooooooooooooooooooooooooooooooooooooooooooooooooooooooooooooooooooooooooooooooooooooooooo.....oooooooooooo",
"oooooooooooooo......oooooooooooooooooooooooooooooooooooooooooooooooooooooooooooooooooooooooooooooooooooooooooooo.....ooooooooooo",
"ooooooooooooo.....ooooooooooooooooooooooooooooooooooooooooooooooooooooooooooooooooooooooooooooooooooooooooooooooo.....oooooooooo",
"oooooooooooo.....ooooooooooooooooooooooooooooooooooooooooooooooooooooooooooooooooooooooooooooooooooooooooooooooooo.....ooooooooo",
"ooooooooooo.....ooooooooooooooooooooooooooooooooooooooooooooooooooooooooooooooooooooooooooooooooooooooooooooooooooo.....oooooooo",
"oooooooooo.....ooooooooooooooooooooooooooooooooooooooooooooooooooooooooooooooooooooooooooooooooooooooooooooooooooooo.....ooooooo",
"ooooooooo.....ooooooooooooooooooooooooooooooooooooooooooooooooooooooooooooooooooooooooooooooooooooooooooooooooooooooo.....oooooo",
"oooooooo.....ooooooooooooooooooooooooooooooooooooooooooooooooooooooooooooooooooooooooooooooooooooooooooooooooooooooooo.....ooooo",
"ooooooo.....ooooooooooooooooooooooooooooooooooooooooooooooooooooooooooooooooooooooooooooooooooooooooooooooooooooooooooo.....oooo",
"ooooo......ooooooooooooooooooooooooooooooooooooooooooooooooooooooooooooooooooooooooooooooooooooooooooooooooooooooooooooo.....ooo",
"oooo......ooooooooooooooooooooooooooooooooooooooooooooooooooooooooooooooooooooooooooooooooooooooooooooooooooooooooooooooo.....oo",
"ooo......ooooooooooooooooooooooooooooooooooooooooooooooooooooooooooooooooooooooooooooooooooooooooooooooooooooooooooooooooo.....o",
"oo......oooooooooooooooooooooooooooooooooooooXXXXXXXXXXXXXXXXXXXXXXXXXXXXXXXXXXXXXXXXXXXXXXXooooooooooooooooooooooooooooooo.....",
"o.....oooooooooooooooooooooooooooooooooooooooXXXXXXXXXXXXXXXXXXXXXXXXXXXXXXXXXXXXXXXXXXXXXXXooooooooooooooooooooooooooooooo.....",
".....ooooooooooooooooooooooooooooooooooooooooXXXXXXXXXXXXXXXXXXXXXXXXXXXXXXXXXXXXXXXXXXXXXXXooooooooooooooooooooooooooooooo.....",
".....ooooooooooooooooooooooooooooooooooooooooXXXXXXXXXXXXXXXXXXXXXXXXXXXXXXXXXXXXXXXXXXXXXXXooooooooooooooooooooooooooooooo.....",
".....ooooooooooooooooooooooooooooooooooooooooXXXXXXXXXXXXXXXXXXXXXXXXXXXXXXXXXXXXXXXXXXXXXXXooooooooooooooooooooooooooooooo.....",
".....ooooooooooooooooooooooooooooooooooooooooXXXXXXXXXXXXXXXXXXXXXXXXXXXXXXXXXXXXXXXXXXXXXXXooooooooooooooooooooooooooooooo.....",
".....ooooooooooooooooooooooooooooooooooooooooXXXXXXXXXXXXXXXXXXXXXXXXXXXXXXXXXXXXXXXXXXXXXXXooooooooooooooooooooooooooooooo.....",
".....ooooooooooooooooooooooooooooooooooooooooXXXXXXXXXXXXXXXXXXXXXXXXXXXXXXXXXXXXXXXXXXXXXXXooooooooooooooooooooooooooooooo.....",
".....ooooooooooooooooooooooooooooooooooooooooXXXXXXXXXXXXXXXXXXXXXXXXXXXXXXXXXXXXXXXXXXXXXXXooooooooooooooooooooooooooooooo.....",
".....ooooooooooooooooooooooooooooooooooooooooXXXXXXXXXXXXXXXXXXXXXXXXXXXXXXXXXXXXXXXXXXXXXXXooooooooooooooooooooooooooooooo.....",
".....ooooooooooooooooooooooooooooooooooooooooXXXXXXXXXXXXXXXXXXXXXXXXXXXXXXXXXXXXXXXXXXXXXXXooooooooooooooooooooooooooooooo.....",
".....ooooooooooooooooooooooooooooooooooooooooXXXXXXXXXXXXXXXXXXXXXXXXXXXXXXXXXXXXXXXXXXXXXXXooooooooooooooooooooooooooooooo.....",
".....ooooooooooooooooooooooooooooooooooooooooXXXXXXXXXXXXXXXXXXXXXXXXXXXXXXXXXXXXXXXXXXXXXXXooooooooooooooooooooooooooooooo.....",
".....ooooooooooooooooooooooooooooooooooooooooXXXXXXXXXXXXXXoooooooooooooooooooooooooooooooooooooooooooooooooooooooooooooooo.....",
".....ooooooooooooooooooooooooooooooooooooooooXXXXXXXXXXXXXXoooooooooooooooooooooooooooooooooooooooooooooooooooooooooooooooo.....",
".....ooooooooooooooooooooooooooooooooooooooooXXXXXXXXXXXXXXoooooooooooooooooooooooooooooooooooooooooooooooooooooooooooooooo.....",
".....ooooooooooooooooooooooooooooooooooooooooXXXXXXXXXXXXXXoooooooooooooooooooooooooooooooooooooooooooooooooooooooooooooooo.....",
".....ooooooooooooooooooooooooooooooooooooooooXXXXXXXXXXXXXXoooooooooooooooooooooooooooooooooooooooooooooooooooooooooooooooo.....",
".....ooooooooooooooooooooooooooooooooooooooooXXXXXXXXXXXXXXoooooooooooooooooooooooooooooooooooooooooooooooooooooooooooooooo.....",
".....ooooooooooooooooooooooooooooooooooooooooXXXXXXXXXXXXXXoooooooooooooooooooooooooooooooooooooooooooooooooooooooooooooooo.....",
".....ooooooooooooooooooooooooooooooooooooooooXXXXXXXXXXXXXXoooooooooooooooooooooooooooooooooooooooooooooooooooooooooooooooo.....",
".....ooooooooooooooooooooooooooooooooooooooooXXXXXXXXXXXXXXoooooooooooooooooooooooooooooooooooooooooooooooooooooooooooooooo.....",
".....ooooooooooooooooooooooooooooooooooooooooXXXXXXXXXXXXXXoooooooooooooooooooooooooooooooooooooooooooooooooooooooooooooooo.....",
".....ooooooooooooooooooooooooooooooooooooooooXXXXXXXXXXXXXXoooooooooooooooooooooooooooooooooooooooooooooooooooooooooooooooo.....",
".....ooooooooooooooooooooooooooooooooooooooooXXXXXXXXXXXXXXoooooooooooooooooooooooooooooooooooooooooooooooooooooooooooooooo.....",
".....ooooooooooooooooooooooooooooooooooooooooXXXXXXXXXXXXXXXXXXXXXXXXXXXXXXXXXXXXXXoooooooooooooooooooooooooooooooooooooooo.....",
".....ooooooooooooooooooooooooooooooooooooooooXXXXXXXXXXXXXXXXXXXXXXXXXXXXXXXXXXXXXXoooooooooooooooooooooooooooooooooooooooo.....",
".....ooooooooooooooooooooooooooooooooooooooooXXXXXXXXXXXXXXXXXXXXXXXXXXXXXXXXXXXXXXoooooooooooooooooooooooooooooooooooooooo.....",
".....ooooooooooooooooooooooooooooooooooooooooXXXXXXXXXXXXXXXXXXXXXXXXXXXXXXXXXXXXXXoooooooooooooooooooooooooooooooooooooooo.....",
".....ooooooooooooooooooooooooooooooooooooooooXXXXXXXXXXXXXXXXXXXXXXXXXXXXXXXXXXXXXXoooooooooooooooooooooooooooooooooooooooo.....",
".....ooooooooooooooooooooooooooooooooooooooooXXXXXXXXXXXXXXXXXXXXXXXXXXXXXXXXXXXXXXoooooooooooooooooooooooooooooooooooooooo.....",
".....ooooooooooooooooooooooooooooooooooooooooXXXXXXXXXXXXXXXXXXXXXXXXXXXXXXXXXXXXXXoooooooooooooooooooooooooooooooooooooooo.....",
".....ooooooooooooooooooooooooooooooooooooooooXXXXXXXXXXXXXXXXXXXXXXXXXXXXXXXXXXXXXXoooooooooooooooooooooooooooooooooooooooo.....",
".....ooooooooooooooooooooooooooooooooooooooooXXXXXXXXXXXXXXXXXXXXXXXXXXXXXXXXXXXXXXoooooooooooooooooooooooooooooooooooooooo.....",
".....ooooooooooooooooooooooooooooooooooooooooXXXXXXXXXXXXXXXXXXXXXXXXXXXXXXXXXXXXXXoooooooooooooooooooooooooooooooooooooooo.....",
".....ooooooooooooooooooooooooooooooooooooooooXXXXXXXXXXXXXXXXXXXXXXXXXXXXXXXXXXXXXXoooooooooooooooooooooooooooooooooooooooo.....",
".....ooooooooooooooooooooooooooooooooooooooooXXXXXXXXXXXXXXoooooooooooooooooooooooooooooooooooooooooooooooooooooooooooooooo.....",
".....ooooooooooooooooooooooooooooooooooooooooXXXXXXXXXXXXXXoooooooooooooooooooooooooooooooooooooooooooooooooooooooooooooooo.....",
".....ooooooooooooooooooooooooooooooooooooooooXXXXXXXXXXXXXXoooooooooooooooooooooooooooooooooooooooooooooooooooooooooooooooo.....",
".....ooooooooooooooooooooooooooooooooooooooooXXXXXXXXXXXXXXoooooooooooooooooooooooooooooooooooooooooooooooooooooooooooooooo.....",
".....ooooooooooooooooooooooooooooooooooooooooXXXXXXXXXXXXXXoooooooooooooooooooooooooooooooooooooooooooooooooooooooooooooooo.....",
".....ooooooooooooooooooooooooooooooooooooooooXXXXXXXXXXXXXXoooooooooooooooooooooooooooooooooooooooooooooooooooooooooooooooo.....",
".....ooooooooooooooooooooooooooooooooooooooooXXXXXXXXXXXXXXoooooooooooooooooooooooooooooooooooooooooooooooooooooooooooooooo.....",
".....ooooooooooooooooooooooooooooooooooooooooXXXXXXXXXXXXXXoooooooooooooooooooooooooooooooooooooooooooooooooooooooooooooooo.....",
".....ooooooooooooooooooooooooooooooooooooooooXXXXXXXXXXXXXXoooooooooooooooooooooooooooooooooooooooooooooooooooooooooooooooo.....",
".....ooooooooooooooooooooooooooooooooooooooooXXXXXXXXXXXXXXoooooooooooooooooooooooooooooooooooooooooooooooooooooooooooooooo.....",
".....ooooooooooooooooooooooooooooooooooooooooXXXXXXXXXXXXXXoooooooooooooooooooooooooooooooooooooooooooooooooooooooooooooooo.....",
".....ooooooooooooooooooooooooooooooooooooooooXXXXXXXXXXXXXXoooooooooooooooooooooooooooooooooooooooooooooooooooooooooooooooo.....",
".....ooooooooooooooooooooooooooooooooooooooooXXXXXXXXXXXXXXoooooooooooooooooooooooooooooooooooooooooooooooooooooooooooooooo.....",
".....ooooooooooooooooooooooooooooooooooooooooXXXXXXXXXXXXXXoooooooooooooooooooooooooooooooooooooooooooooooooooooooooooooooo.....",
".....ooooooooooooooooooooooooooooooooooooooooXXXXXXXXXXXXXXoooooooooooooooooooooooooooooooooooooooooooooooooooooooooooooooo.....",
".....ooooooooooooooooooooooooooooooooooooooooXXXXXXXXXXXXXXoooooooooooooooooooooooooooooooooooooooooooooooooooooooooooooooo.....",
".....ooooooooooooooooooooooooooooooooooooooooXXXXXXXXXXXXXXoooooooooooooooooooooooooooooooooooooooooooooooooooooooooooooooo.....",
".....ooooooooooooooooooooooooooooooooooooooooXXXXXXXXXXXXXXoooooooooooooooooooooooooooooooooooooooooooooooooooooooooooooooo.....",
".....ooooooooooooooooooooooooooooooooooooooooXXXXXXXXXXXXXXoooooooooooooooooooooooooooooooooooooooooooooooooooooooooooooooo.....",
".....ooooooooooooooooooooooooooooooooooooooooXXXXXXXXXXXXXXoooooooooooooooooooooooooooooooooooooooooooooooooooooooooooooooo.....",
".....ooooooooooooooooooooooooooooooooooooooooXXXXXXXXXXXXXXoooooooooooooooooooooooooooooooooooooooooooooooooooooooooooooooo.....",
".....ooooooooooooooooooooooooooooooooooooooooXXXXXXXXXXXXXXoooooooooooooooooooooooooooooooooooooooooooooooooooooooooooooooo.....",
".....ooooooooooooooooooooooooooooooooooooooooXXXXXXXXXXXXXXoooooooooooooooooooooooooooooooooooooooooooooooooooooooooooooooo.....",
"o.....oooooooooooooooooooooooooooooooooooooooXXXXXXXXXXXXXXoooooooooooooooooooooooooooooooooooooooooooooooooooooooooooooooo.....",
"oo.....ooooooooooooooooooooooooooooooooooooooXXXXXXXXXXXXXXooooooooooooooooooooooooooooooooooooooooooooooooooooooooooooooo.....o",
"ooo.....oooooooooooooooooooooooooooooooooooooXXXXXXXXXXXXXXoooooooooooooooooooooooooooooooooooooooooooooooooooooooooooooo.....oo",
"oooo.....ooooooooooooooooooooooooooooooooooooXXXXXXXXXXXXXXoooooooooooooooooooooooooooooooooooooooooooooooooooooooooooooo.....oo",
"ooooo.....oooooooooooooooooooooooooooooooooooXXXXXXXXXXXXXXooooooooooooooooooooooooooooooooooooooooooooooooooooooooooooo.....ooo",
"oooooo.....oooooooooooooooooooooooooooooooooooooooooooooooooooooooooooooooooooooooooooooooooooooooooooooooooooooooooooo.....oooo",
"ooooooo.....oooooooooooooooooooooooooooooooooooooooooooooooooooooooooooooooooooooooooooooooooooooooooooooooooooooooooo.....ooooo",
"oooooooo.....oooooooooooooooooooooooooooooooooooooooooooooooooooooooooooooooooooooooooooooooooooooooooooooooooooooooo.....oooooo",
"ooooooooo.....oooooooooooooooooooooooooooooooooooooooooooooooooooooooooooooooooooooooooooooooooooooooooooooooooooooo......oooooo",
"oooooooooo.....ooooooooooooooooooooooooooooooooooooooooooooooooooooooooooooooooooooooooooooooooooooooooooooooooooooo.....ooooooo",
"ooooooooooo.....ooooooooooooooooooooooooooooooooooooooooooooooooooooooooooooooooooooooooooooooooooooooooooooooooooo.....oooooooo",
"oooooooooooo.....ooooooooooooooooooooooooooooooooooooooooooooooooooooooooooooooooooooooooooooooooooooooooooooooooo.....ooooooooo",
"ooooooooooooo.....ooooooooooooooooooooooooooooooooooooooooooooooooooooooooooooooooooooooooooooooooooooooooooooooo.....oooooooooo",
"oooooooooooooo.....ooooooooooooooooooooooooooooooooooooooooooooooooooooooooooooooooooooooooooooooooooooooooooooo......oooooooooo",
"ooooooooooooooo.....oooooooooooooooooooooooooooooooooooooooooooooooooooooooooooooooooooooooooooooooooooooooooooo.....ooooooooooo",
"oooooooooooooooo.....oooooooooooooooooooooooooooooooooooooooooooooooooooooooooooooooooooooooooooooooooooooooooo.....oooooooooooo",
"ooooooooooooooooo......ooooooooooooooooooooooooooooooooooooooooooooooooooooooooooooooooooooooooooooooooooooooo.....ooooooooooooo",
"oooooooooooooooooo......ooooooooooooooooooooooooooooooooooooooooooooooooooooooooooooooooooooooooooooooooooooo.....oooooooooooooo",
"ooooooooooooooooooo......ooooooooooooooooooooooooooooooooooooooooooooooooooooooooooooooooooooooooooooooooooo.....ooooooooooooooo",
"ooooooooooooooooooooo.....oooooooooooooooooooooooooooooooooooooooooooooooooooooooooooooooooooooooooooooooooo.....ooooooooooooooo",
"oooooooooooooooooooooo.....oooooooooooooooooooooooooooooooooooooooooooooooooooooooooooooooooooooooooooooooo.....oooooooooooooooo",
"ooooooooooooooooooooooo.....oooooooooooooooooooooooooooooooooooooooooooooooooooooooooooooooooooooooooooooo.....ooooooooooooooooo",
"oooooooooooooooooooooooo.....oooooooooooooooooooooooooooooooooooooooooooooooooooooooooooooooooooooooooooo.....oooooooooooooooooo",
"ooooooooooooooooooooooooo.....oooooooooooooooooooooooooooooooooooooooooooooooooooooooooooooooooooooooooo.....ooooooooooooooooooo",
"oooooooooooooooooooooooooo.....oooooooooooooooooooooooooooooooooooooooooooooooooooooooooooooooooooooooo......ooooooooooooooooooo",
"ooooooooooooooooooooooooooo.....ooooooooooooooooooooooooooooooooooooooooooooooooooooooooooooooooooooooo.....oooooooooooooooooooo",
"oooooooooooooooooooooooooooo.....ooooooooooooooooooooooooooooooooooooooooooooooooooooooooooooooooooooo.....ooooooooooooooooooooo",
"ooooooooooooooooooooooooooooo.....ooooooooooooooooooooooooooooooooooooooooooooooooooooooooooooooooooo.....oooooooooooooooooooooo",
"oooooooooooooooooooooooooooooo.....ooooooooooooooooooooooooooooooooooooooooooooooooooooooooooooooooo.....ooooooooooooooooooooooo",
"ooooooooooooooooooooooooooooooo.....ooooooooooooooooooooooooooooooooooooooooooooooooooooooooooooooo......ooooooooooooooooooooooo",
"oooooooooooooooooooooooooooooooo.....oooooooooooooooooooooooooooooooooooooooooooooooooooooooooooooo.....oooooooooooooooooooooooo",
"ooooooooooooooooooooooooooooooooo.....oooooooooooooooooooooooooooooooooooooooooooooooooooooooooooo.....ooooooooooooooooooooooooo",
"oooooooooooooooooooooooooooooooooo....................................................................oooooooooooooooooooooooooo",
"ooooooooooooooooooooooooooooooooooo..................................................................ooooooooooooooooooooooooooo",
"oooooooooooooooooooooooooooooooooooo.................................................................ooooooooooooooooooooooooooo",
"ooooooooooooooooooooooooooooooooooooo...............................................................oooooooooooooooooooooooooooo",
"oooooooooooooooooooooooooooooooooooooo.............................................................ooooooooooooooooooooooooooooo"
};
